<svg width="135" height="40" viewBox="0 0 135 40" fill="none" xmlns="http://www.w3.org/2000/svg">
<g clip-path="url(#clip0_2679_6731)">
<path d="M0 1.03882H10.1193C17.7651 1.03882 24.0629 7.05184 24.0629 14.7627C24.0629 22.4736 17.7271 28.4785 10.1193 28.4785H0V1.03882ZM7.13588 22.4438H8.7361C12.997 22.4438 16.6368 20.114 16.6368 14.7627C16.6368 9.84815 13.3822 7.08167 8.80933 7.08167H7.13588V22.4438Z" fill="#E6334C"/>
<path d="M59.6689 1.03882H66.8021L79.8724 17.8221H79.9456V1.03882H87.0625V28.4785H79.9293L66.8672 11.6626H66.794V28.4785H59.6689V1.03882Z" fill="#E6334C"/>
<path d="M91.7275 1.03882H101.85C109.493 1.03882 115.79 7.04641 115.79 14.7627C115.79 22.479 109.457 28.4785 101.85 28.4785H91.7275V1.03882ZM98.8634 22.4438H100.464C104.725 22.4438 108.364 20.114 108.364 14.7627C108.364 9.84815 105.11 7.08167 100.537 7.08167H98.8634V22.4438Z" fill="#E6334C"/>
<path d="M126.235 7.08167V11.6626H134.282V17.7109H126.235V22.4438H134.719V28.4785H119.102V1.03882H134.719V7.08167H126.235Z" fill="#E6334C"/>
<path d="M41.8279 0C37.9242 0.0050236 34.1818 1.55798 31.4215 4.31831C28.6612 7.07864 27.1082 10.821 27.1032 14.7247C27.0938 16.7985 27.5333 18.8498 28.3915 20.7377C32.072 28.793 39.1319 37.2986 41.2095 39.7233C41.2859 39.8136 41.381 39.8861 41.4883 39.9359C41.5955 39.9856 41.7124 40.0114 41.8306 40.0114C41.9488 40.0114 42.0656 39.9856 42.1729 39.9359C42.2802 39.8861 42.3753 39.8136 42.4517 39.7233C44.5266 37.3095 51.5838 28.8039 55.267 20.7377C56.1251 18.8498 56.5646 16.7985 56.5553 14.7247C56.5503 10.8205 54.9969 7.07776 52.236 4.31736C49.4751 1.55695 45.732 0.004306 41.8279 0V0ZM49.5171 17.8383H44.0926V23.8053H40.0242V17.8383H34.0573V13.4988H40.0242V8.34554H44.0926V13.4988H49.5171V17.8383Z" fill="#E6334C"/>
</g>
<defs>
<clipPath id="clip0_2679_6731">
<rect width="134.719" height="40" fill="white"/>
</clipPath>
</defs>
</svg>
