<svg width="74" height="74" viewBox="0 0 74 74" fill="none" xmlns="http://www.w3.org/2000/svg">
    <path opacity="0.1" d="M37 60C49.7025 60 60 49.7025 60 37C60 24.2975 49.7025 14 37 14C24.2975 14 14 24.2975 14 37C14 49.7025 24.2975 60 37 60Z" fill="#E6334C"/>
    <g filter="url(#filter0_i_1_9)">
        <path d="M36.5 42C40.6421 42 44 38.6421 44 34.5C44 30.3579 40.6421 27 36.5 27C32.3579 27 29 30.3579 29 34.5C29 38.6421 32.3579 42 36.5 42Z" fill="#E6334C"/>
    </g>
    <path opacity="0.1" d="M37 74C57.4345 74 74 57.4345 74 37C74 16.5655 57.4345 0 37 0C16.5655 0 0 16.5655 0 37C0 57.4345 16.5655 74 37 74Z" fill="#E6334C"/>
    <defs>
        <filter id="filter0_i_1_9" x="29" y="27" width="15" height="18" filterUnits="userSpaceOnUse" color-interpolation-filters="sRGB">
            <feFlood flood-opacity="0" result="BackgroundImageFix"/>
            <feBlend mode="normal" in="SourceGraphic" in2="BackgroundImageFix" result="shape"/>
            <feColorMatrix in="SourceAlpha" type="matrix" values="0 0 0 0 0 0 0 0 0 0 0 0 0 0 0 0 0 0 127 0" result="hardAlpha"/>
            <feOffset dy="3"/>
            <feGaussianBlur stdDeviation="1.5"/>
            <feComposite in2="hardAlpha" operator="arithmetic" k2="-1" k3="1"/>
            <feColorMatrix type="matrix" values="0 0 0 0 0 0 0 0 0 0 0 0 0 0 0 0 0 0 0.25 0"/>
            <feBlend mode="normal" in2="shape" result="effect1_innerShadow_1_9"/>
        </filter>
    </defs>
</svg>
