<?xml version="1.0" encoding="UTF-8"?><svg id="Layer_2" xmlns="http://www.w3.org/2000/svg" viewBox="0 0 200 200"><defs><style>.cls-1{fill:none;}</style></defs><g id="Layer_1-2"><g>
    <circle cx="100" cy="100" r="100" fill="#FEEBEC"/>
    <path class="cls-1" d="M199.92,100.5c0,31.97-.05,63.95,.08,95.92,.01,2.98-.6,3.58-3.58,3.58-64.28-.11-128.56-.11-192.84,0-2.98,0-3.58-.6-3.58-3.58,.11-64.28,.11-128.56,0-192.84C0,.6,.6,0,3.58,0,67.86,.11,132.14,.11,196.42,0c2.98,0,3.59,.6,3.58,3.58-.14,32.31-.08,64.61-.08,96.92Z" fill="#E6334C" /><path d="M129.19,144.75c-2.36-1.16-2.75-2.44-2.75-4.89,.03-12.54,.03-25.07,.03-37.61,0-12.26,0-24.53,.03-36.79,.02-9.02-3.69-16.33-11.05-21.73l-.62-.45c-1.76-1.27-2.64-1.9-4.34-5.1-1.88-3.53-6.06-5.78-10.56-5.73-4.21,.05-7.72,2.07-9.38,5.4-1.42,2.84-2.98,3.96-4.78,5.25-.67,.48-1.36,.97-2.1,1.59-5.81,4.84-10.18,13.41-10.17,19.93,0,4.37,0,13.47,0,23.95,0,19.06-.01,42.78,.04,50.94,.02,2.67-.26,4.07-2.88,5.31-5.56,2.65-8.54,9.01-6.92,14.79,1.42,5.08,5.9,7.89,12.6,7.89,7.61,.01,15.21,.01,22.82,.01,8.04,0,16.08,0,24.12-.01,7.01,0,11.62-2.87,12.98-8.06,1.51-5.77-1.48-11.96-7.09-14.71Zm.28,10.67c.03,1.65-.45,3-1.43,4.01-1.29,1.33-3.45,2.05-6.25,2.08-7.11,.08-35.98,.07-43.32,0-3.57-.03-7.84-1.07-7.93-5.86-.03-1.65,.45-3.01,1.45-4.03,1.3-1.33,3.46-2.05,6.23-2.06,7.56-.03,14.87-.05,22-.05s14.65,.02,21.82,.05c4.65,.02,7.36,2.15,7.43,5.85Zm-49.97-87.27c-.07-9.9,3.9-16.58,12.13-20.44,2.1-.98,2.84-2.43,3.33-4.44,.69-2.8,2.6-4.35,5.22-4.21,2.52,.12,4.2,1.66,4.62,4.23,.38,2.37,1.87,3.55,3.98,4.6,7.7,3.81,11.62,10.12,11.65,18.74,.04,11.84,.04,23.69,.05,35.53,0,12.54,0,25.51,.06,38.27,0,1.4-.17,2.17-.6,2.6-.42,.42-1.19,.6-2.46,.58-5.73-.08-11.55-.12-17.41-.12s-11.66,.04-17.51,.12c-1.3,.02-2.08-.16-2.51-.59-.42-.42-.61-1.21-.59-2.55,.14-12.34,.13-60.35,.04-72.32Z" fill="#E6334C" /></g></g></svg>