<?xml version="1.0" encoding="UTF-8"?><svg id="Layer_2" xmlns="http://www.w3.org/2000/svg" viewBox="0 0 200 200"><defs><style>.cls-1{fill:none;}</style></defs><g id="Layer_1-2"><g>
    <circle cx="100" cy="100" r="100" fill="#FEEBEC"/>
    <path class="cls-1" d="M199.93,99.98c0,32.12-.04,64.23,.07,96.35,0,2.77-.29,3.68-3.49,3.67-64.42-.13-128.83-.12-193.25-.02C.39,199.99,0,199.27,0,196.61,.09,132.21,.09,67.81,0,3.41,0,.8,.31,0,3.24,0,67.82,.11,132.4,.11,196.99,.01c2.62,0,3.01,.74,3,3.12-.08,32.28-.05,64.57-.05,96.85Z" fill="#E6334C" /><path d="M166.16,59.12c-5.65-5.65-22.85-22.82-25.8-25.77-1.66-1.66-2.66-1.58-3.97-.28-1.49,1.49-1.11,2.87,.05,4.02,4.09,4.09,3.55,5.37-.03,8.95-5.71,5.71-8.4,9.01-14.74,14.89-3.52,3.26-4.23,3.49-6.62,1.11-3.35-3.35-6.8-6.86-10.21-10.27-2.3-2.3-2.82-2.02-4.32-.52-1.39,1.39-1.84,2.08,.5,4.42,.71,.71,1.43,1.41,2.12,2.11,4.03,4.03,3.85,4.8,.24,8.3-15.77,15.3-31.2,30.96-46.73,46.53-7.18,7.2-7.77,15.54-1.14,23.08,2.22,2.52,1.6,3.56-.37,5.48-6.93,6.73-13.72,13.6-20.51,20.46-1.42,1.43-3.99,2.89-1.62,5.28,2.28,2.29,3.89,.03,5.38-1.45,6.97-6.92,13.91-13.88,20.85-20.83,1.26-1.26,2.03-2.66,4.35-.81,9.6,7.69,16.62,7.15,25.33-1.55,14.97-14.94,30.04-29.78,44.78-44.94,3.5-3.6,4.38-4.45,8.03-.79l3.54,3.54c1.41,1.41,2.79,.04,3.54-.71,1.41-1.41,1.81-1.81-.3-3.92-3.53-3.53-7.11-7.05-10.62-10.57-1.98-1.98-2.03-3.01-.06-5.14,6.18-6.68,10.41-10.44,16.58-16.61,3.12-3.12,4.51-3.57,7.88-.2,1.4,1.4,3.25,2.26,4.7,.8,1.38-1.38,1.43-2.36-.83-4.62Zm-84.6,82.28c-3.72,3.62-9.1,3.07-13.09-.61-3.18-2.93-6.16-6.07-9.2-9.15-2.43-2.45-3-5.48-2.49-8.76,.93-5.92,10.2-13.83,16.12-13.83,13.3,0,26.61,0,40.75,0-11.06,11.2-21.41,21.95-32.09,32.35Zm50.68-50.37c-3.59,3.46-7.08,7.03-10.59,10.58-1.09,1.1-2.23,1.88-3.9,1.87-14.29-.03-28.57-.02-44.3-.02,12.71-12.71,24.35-24.31,35.92-35.97,1.44-1.45,2.33-1.18,3.63,.14,6.42,6.52,12.86,13.02,19.43,19.39,1.7,1.65,1.24,2.61-.19,4Zm19.88-33.27c-6.1,6.1-12.15,12.23-18.25,18.33-2.05,2.05-2.71,2.01-4.67,.13-7.62-7.32-7.96-7.26-5.14-10.09,4.34-4.34,13.63-13.46,17.96-17.8,2.63-2.63,3.6-2.06,5.81,.15,2.59,2.59,3.27,3.29,4.88,4.96l.02,.02c1.19,1.19,1.68,2-.61,4.29Z" fill="#E6334C" /></g></g></svg>