<?xml version="1.0" encoding="UTF-8"?><svg id="Layer_2" xmlns="http://www.w3.org/2000/svg" viewBox="0 0 200 200"><defs><style>.cls-1{fill:none;}</style></defs><g id="Layer_1-2"><g>
    <circle cx="100" cy="100" r="100" fill="#FEEBEC"/>
    <path class="cls-1" d="M199.93,99.98c0,32.12-.04,64.23,.07,96.35,0,2.78-.3,3.67-3.49,3.67-64.42-.13-128.83-.12-193.25-.01C.38,199.99,0,199.26,0,196.6,.09,132.2,.09,67.8,0,3.4,0,.79,.32,0,3.24,0,67.82,.11,132.41,.11,196.99,.01c2.63,0,3,.75,3,3.12-.08,32.28-.05,64.57-.05,96.85Z" fill="#E6334C" /><path d="M173.02,89.31c-.49-10.65-6.9-20.63-17.56-27.4-10.33-6.55-22.31-9.6-37.57-9.53-8.63-.35-18.22,1.63-27.04,5.57-3.71,1.66-7.57,2.57-11.46,2.72-18.01,.65-31.83,6.01-42.25,16.36-6.91,6.87-10.51,15.29-10.15,23.73,.34,7.97,4.12,15.19,10.91,20.86,7.15,5.98,10.69,11.54,6.26,20.81-.97,2.02-.68,3.73,.78,4.69,.58,.38,1.16,.53,1.72,.53,1.15,0,2.21-.61,2.99-1.06,3.75-2.14,7.51-4.27,11.27-6.39l3.91-2.21c1.64-.93,3.02-1.45,4.83-1.19,16.68,2.39,31.23,.29,44.49-6.4l.35-.18c.59-.31,1.2-.62,1.73-.63,2.01-.03,4.07-.17,6.06-.31,7.68-.54,14.94-1.04,21.4,4.27,.24,.14,3,1.88,3.33,2.13,.71,.38,1.41,.9,2.16,1.46,2.13,1.59,4.55,3.38,7,1.33,2.67-2.23,1.13-5.78-.11-8.63-.32-.74-.62-1.44-.85-2.09-1.56-4.46-.76-6.98,3.18-10.02,9.94-7.68,15.14-17.77,14.64-28.42Zm-5.17,1.44c.08,7.16-3.45,13.91-10.19,19.5l-.89,.73c-5.86,4.83-11.41,9.41-7.94,18.45-7.08-4.58-13.63-6.69-21-6.69-1.54,0-3.12,.09-4.74,.27-16.28,1.81-31.05-2.71-42.72-13.09-6.15-5.47-9.51-12.32-9.45-19.28,.06-7.03,3.59-13.9,9.93-19.34,19.38-16.63,55.24-17.33,75.24-1.46,7.51,5.96,11.69,13.38,11.77,20.9ZM49.91,124.69c-1.2-1.2-4.07-3.9-5.37-4.97-7.4-6.15-11.36-13.74-11.14-21.39,.22-7.63,4.59-14.97,12.31-20.67,8.33-6.15,18.19-9.64,30.14-10.68-.26,.49-.74,1.18-1.29,1.76-6.74,7.05-10.18,15.59-9.69,24.05,.49,8.51,4.93,16.66,12.51,22.95,6.36,5.28,15,9.53,23.7,11.67,.54,.13,1.32,.54,1.93,.94-10.75,3.46-21.05,4.28-31.44,2.49-3.83-.66-7.25,.05-10.76,2.25-2.11,1.32-4.26,2.51-6.53,3.78-.73,.41-1.48,.82-2.22,1.24,.08-.68,.21-1.33,.33-1.96,.15-.79,.3-1.55,.35-2.32,.39-5.74-2.49-8.8-2.82-9.13Z" fill="#E6334C" /></g></g></svg>