<?xml version="1.0" encoding="UTF-8"?><svg id="Layer_2" xmlns="http://www.w3.org/2000/svg" viewBox="0 0 200 200"><defs><style>.cls-1{fill:none;}</style></defs><g id="Layer_1-2"><g>
    <circle cx="100" cy="100" r="100" fill="#FEEBEC"/>
    <path class="cls-1" d="M.09,199.96C.09,134.21,.11,68.46,0,2.72,0,.05,.88,.03,2.94,.03,67.68,.08,132.42,.09,197.15,0c2.44,0,2.78,.58,2.77,2.85-.07,64.61-.11,129.21,.07,193.82,.01,3.96-1.9,3.29-4.13,3.29-65.24,0-130.48,0-195.79,0Z" fill="#E6334C" /><g><path d="M160.5,83.19h-16c-.72,0-1.41,.12-2.05,.34v-23.59c0-3.58-2.92-6.5-6.5-6.5h-9v-11.38c0-2.48-2.02-4.5-4.5-4.5h-45c-2.48,0-4.5,2.02-4.5,4.5v27c0,2.48,2.02,4.5,4.5,4.5h45c2.48,0,4.5-2.02,4.5-4.5v-10.62h9c.83,0,1.5,.67,1.5,1.5v96c0,.83-.67,1.5-1.5,1.5h-24.5v-13.5c0-2.48-2.02-4.5-4.5-4.5h-14c-2.48,0-4.5,2.02-4.5,4.5v13.5h-24.5c-.83,0-1.5-.67-1.5-1.5V59.94c0-.83,.67-1.5,1.5-1.5h9v-5h-9c-3.58,0-6.5,2.92-6.5,6.5v23.55c-.62-.19-1.27-.3-1.95-.3h-16c-3.58,0-6.5,2.92-6.5,6.5v57c0,3.58,2.92,6.5,6.5,6.5h16c.68,0,1.33-.11,1.95-.3v3.05c0,3.58,2.92,6.5,6.5,6.5h29.5v-18h13v18h29.5c3.58,0,6.5-2.92,6.5-6.5v-3.09c.65,.22,1.33,.34,2.05,.34h16c3.58,0,6.5-2.92,6.5-6.5v-57c0-3.58-2.92-6.5-6.5-6.5Zm-38.55-14.62h-44v-26h44v26ZM57,108.19h-10.5v-10h10.5v10Zm0,24h-10.5v-10h10.5v10Zm-1.5,16h-16c-.83,0-1.5-.67-1.5-1.5v-57c0-.83,.67-1.5,1.5-1.5h16c.83,0,1.5,.67,1.5,1.5v4.5h-10.5c-2.21,0-4,1.79-4,4v10c0,2.21,1.79,4,4,4h10.5v6h-10.5c-2.21,0-4,1.79-4,4v10c0,2.21,1.79,4,4,4h10.5v10.5c0,.83-.67,1.5-1.5,1.5Zm87.5-26h10.5v10h-10.5v-10Zm0-24h10.5v10h-10.5v-10Zm19,48.5c0,.83-.67,1.5-1.5,1.5h-16c-.83,0-1.5-.67-1.5-1.5v-10.5h10.5c2.21,0,4-1.79,4-4v-10c0-2.21-1.79-4-4-4h-10.5v-6h10.5c2.21,0,4-1.79,4-4v-10c0-2.21-1.79-4-4-4h-10.5v-4.5c0-.83,.67-1.5,1.5-1.5h16c.83,0,1.5,.67,1.5,1.5v57Z" fill="#E6334C" /><path d="M97.57,83.69c0-2.21-1.79-4-4-4h-20c-2.21,0-4,1.79-4,4v14c0,2.21,1.79,4,4,4h20c2.21,0,4-1.79,4-4v-14Zm-24,14v-14h20v14h-20Z" fill="#E6334C" /><path d="M106.32,101.69h20c2.21,0,4-1.79,4-4v-14c0-2.21-1.79-4-4-4h-20c-2.21,0-4,1.79-4,4v14c0,2.21,1.79,4,4,4Zm0-18h20v14h-20v-14Z" fill="#E6334C" /><path d="M93.57,106.94h-20c-2.21,0-4,1.79-4,4v14c0,2.21,1.79,4,4,4h20c2.21,0,4-1.79,4-4v-14c0-2.21-1.79-4-4-4Zm-20,18v-14h20v14h-20Z" fill="#E6334C" /><path d="M102.32,124.94c0,2.21,1.79,4,4,4h20c2.21,0,4-1.79,4-4v-14c0-2.21-1.79-4-4-4h-20c-2.21,0-4,1.79-4,4v14Zm4-14h20v14h-20v-14Z" fill="#E6334C" /><path d="M92.7,58.06h4.75v4.75c0,1.38,1.12,2.5,2.5,2.5s2.5-1.12,2.5-2.5v-4.75h4.75c1.38,0,2.5-1.12,2.5-2.5s-1.12-2.5-2.5-2.5h-4.75v-4.75c0-1.38-1.12-2.5-2.5-2.5s-2.5,1.12-2.5,2.5v4.75h-4.75c-1.38,0-2.5,1.12-2.5,2.5s1.12,2.5,2.5,2.5Z" fill="#E6334C" /></g></g></g></svg>