<?xml version="1.0" encoding="UTF-8"?><svg id="Layer_2" xmlns="http://www.w3.org/2000/svg" viewBox="0 0 200 200"><defs><style>.cls-1{fill:none;}</style></defs><g id="Layer_1-2"><g>
    <circle cx="100" cy="100" r="100" fill="#FEEBEC"/>
    <path class="cls-1" d="M0,.1c65.3,0,130.6,.03,195.9-.1,3.42,0,4.1,.67,4.09,4.09-.13,63.94-.13,127.88,0,191.81,0,3.42-.67,4.1-4.09,4.09-65.3-.13-130.6-.1-195.91-.1,0-66.6,0-133.2,0-199.81Z" fill="#E6334C" /><g><path d="M135.78,35.07c-23.98-.02-47.97-.03-71.95,0-7.32,0-10.36,3.02-10.38,10.23-.03,18.14-.02,90.72,0,108.87,0,7.83,2.96,10.76,10.89,10.76,23.65,.01,47.3,.01,70.95,0,8.22,0,11.26-2.95,11.27-11,.02-35.96,.02-71.91,0-107.87,0-7.88-3.04-10.99-10.78-11Zm-.83,124.37c-23.3-.16-46.61-.17-69.91,0-4.69,.03-6.52-1.43-6.51-6.28,.13-35.44,.13-70.87,0-106.31-.02-4.82,1.8-6.32,6.51-6.29,23.3,.17,46.61,.17,69.91,0,4.54-.03,6.16,1.47,6.11,6.06-.19,17.97-.2,89.17,0,106.81,.05,4.63-1.6,6.04-6.11,6.01Z" fill="#E6334C" /><path d="M83.5,124.13c-6.2-.12-11.56,4.96-11.74,11.13-.23,7.84,8.63,14.7,16.7,10.31,3.8-2.07,6.27-6.12,6.12-10.44-.21-6.06-5-10.87-11.08-10.99Zm-.01,17.12c-3.65,.04-6-1.92-5.99-5.75,0-3.79,2.29-5.84,5.98-5.76,2.75,.06,4.45,1.43,5.17,3.6,.42,1.25,.41,2.62,.07,3.89-.68,2.5-2.35,3.98-5.22,4.01Z" fill="#E6334C" /><path d="M83.28,55.2c-6.16-.01-11.5,5.26-11.53,11.39-.03,7.16,7.06,13.09,14.49,11.01,4.74-1.32,8.18-5.65,8.34-10.57,.21-6.51-4.9-11.82-11.3-11.83Zm.15,17.15c-3.72,.11-5.95-1.96-5.93-5.77,.01-3,1.47-4.84,3.99-5.5,.88-.23,1.8-.26,2.7-.12,2.88,.43,4.57,2.11,4.75,5.2,.23,3.74-1.73,6.08-5.51,6.19Z" fill="#E6334C" /><path d="M116.51,124.13c-6.44,.03-11.12,4.86-11.1,11.45,.02,6.28,4.78,11.21,10.87,11.36,6.19,.14,11.51-4.87,11.69-11.06,.2-6.52-4.99-11.78-11.47-11.75Zm2.96,16.45c-1.67,.84-3.68,.9-5.4,.18-2.09-.87-3.33-2.64-3.36-5.27-.04-3.4,2.13-5.6,5.64-5.74,3.81-.15,6.03,2.12,6.1,5.74,.05,2.46-1.1,4.14-2.99,5.09Z" fill="#E6334C" /><path d="M117.11,55.21c-6.33-.31-11.5,4.51-11.69,10.9-.19,6.55,4.35,11.6,10.68,11.9,6.25,.29,11.53-4.58,11.8-10.9,.27-6.34-4.49-11.59-10.79-11.91Zm-.73,17.15c-3.47-.1-5.71-2.29-5.66-5.69,.05-2.91,1.55-4.84,4.02-5.55,1.25-.35,2.59-.29,3.82,.09,2.51,.78,3.93,2.6,3.89,5.37-.05,3.63-2.33,5.88-6.08,5.77Z" fill="#E6334C"/><path d="M83.6,89.86c-6.49-.12-11.51,4.49-11.83,10.86-.3,6.01,4.87,11.48,11.1,11.75,6.17,.27,11.54-4.79,11.72-11.02,.18-6.42-4.61-11.47-10.99-11.59Zm-.78,17.04c-3.43-.25-5.45-2.44-5.32-5.98,.14-3.78,2.49-5.91,6.13-5.69,2.65,.16,4.41,1.58,5.08,3.97,.39,1.38,.31,2.88-.19,4.23-.87,2.31-2.71,3.68-5.69,3.46Z" fill="#E6334C" /><path d="M119.11,90.09c-8.45-1.68-14.88,4.4-13.54,12.91,.85,5.45,5.26,9.42,10.9,9.48,6.28,.07,11.33-4.94,11.39-11.3,.06-5.7-3.5-10.04-8.75-11.09Zm-2.71,16.81c-3.64-.16-5.86-2.5-5.68-6.15,.16-3.38,2.41-5.56,5.81-5.56,2.34,0,3.99,.96,4.99,2.61,1.2,1.98,1.15,4.54-.05,6.52-1.01,1.67-2.64,2.68-5.08,2.57Z" fill="#E6334C" /></g></g></g></svg>