<svg width="32" height="32" viewBox="0 0 32 32" fill="none" xmlns="http://www.w3.org/2000/svg">
<circle cx="16" cy="16" r="16" fill="#FEEBEC"/>
<path d="M16 15.5C15.7239 15.5 15.5 15.7239 15.5 16C15.5 16.2761 15.7239 16.5 16 16.5V15.5ZM19 16.5C19.2761 16.5 19.5 16.2761 19.5 16C19.5 15.7239 19.2761 15.5 19 15.5V16.5ZM16 19.5C15.7239 19.5 15.5 19.7239 15.5 20C15.5 20.2761 15.7239 20.5 16 20.5V19.5ZM19 20.5C19.2761 20.5 19.5 20.2761 19.5 20C19.5 19.7239 19.2761 19.5 19 19.5V20.5ZM13 15.5C12.7239 15.5 12.5 15.7239 12.5 16C12.5 16.2761 12.7239 16.5 13 16.5V15.5ZM13.01 16.5C13.2861 16.5 13.51 16.2761 13.51 16C13.51 15.7239 13.2861 15.5 13.01 15.5V16.5ZM13 19.5C12.7239 19.5 12.5 19.7239 12.5 20C12.5 20.2761 12.7239 20.5 13 20.5V19.5ZM13.01 20.5C13.2861 20.5 13.51 20.2761 13.51 20C13.51 19.7239 13.2861 19.5 13.01 19.5V20.5ZM22.5 11V23H23.5V11H22.5ZM21 24.5H11V25.5H21V24.5ZM9.5 23V11H8.5V23H9.5ZM11 9.5H13V8.5H11V9.5ZM19 9.5H21V8.5H19V9.5ZM11 24.5C10.1716 24.5 9.5 23.8284 9.5 23H8.5C8.5 24.3807 9.61929 25.5 11 25.5V24.5ZM22.5 23C22.5 23.8284 21.8284 24.5 21 24.5V25.5C22.3807 25.5 23.5 24.3807 23.5 23H22.5ZM23.5 11C23.5 9.61929 22.3807 8.5 21 8.5V9.5C21.8284 9.5 22.5 10.1716 22.5 11H23.5ZM9.5 11C9.5 10.1716 10.1716 9.5 11 9.5V8.5C9.61929 8.5 8.5 9.61929 8.5 11H9.5ZM16 16.5H19V15.5H16V16.5ZM16 20.5H19V19.5H16V20.5ZM15 7.5H17V6.5H15V7.5ZM17 10.5H15V11.5H17V10.5ZM15 10.5C14.1716 10.5 13.5 9.82843 13.5 9H12.5C12.5 10.3807 13.6193 11.5 15 11.5V10.5ZM18.5 9C18.5 9.82843 17.8284 10.5 17 10.5V11.5C18.3807 11.5 19.5 10.3807 19.5 9H18.5ZM17 7.5C17.8284 7.5 18.5 8.17157 18.5 9H19.5C19.5 7.61929 18.3807 6.5 17 6.5V7.5ZM15 6.5C13.6193 6.5 12.5 7.61929 12.5 9H13.5C13.5 8.17157 14.1716 7.5 15 7.5V6.5ZM13 16.5H13.01V15.5H13V16.5ZM13 20.5H13.01V19.5H13V20.5Z" fill="#E6334C"/>
</svg>
